<svg xmlns="http://www.w3.org/2000/svg" viewBox="0 0 100 100">
  <defs>
    <linearGradient id="milkGrad" x1="0%" y1="0%" x2="100%" y2="100%">
      <stop offset="0%" style="stop-color:#10B981;stop-opacity:1" />
      <stop offset="100%" style="stop-color:#059669;stop-opacity:1" />
    </linearGradient>
  </defs>
  <!-- Milk bottle -->
  <path d="M35 20 L35 15 Q35 10 40 10 L60 10 Q65 10 65 15 L65 20 L70 30 L70 85 Q70 90 65 90 L35 90 Q30 90 30 85 L30 30 Z" fill="url(#milkGrad)"/>
  <!-- Milk liquid -->
  <path d="M35 45 L65 45 L65 82 Q65 87 60 87 L40 87 Q35 87 35 82 Z" fill="white" opacity="0.9"/>
  <!-- Bottle cap -->
  <rect x="38" y="5" width="24" height="8" rx="2" fill="#047857"/>
  <!-- Shine -->
  <ellipse cx="42" cy="60" rx="3" ry="15" fill="white" opacity="0.3"/>
</svg>
